<svg width="24" height="24" viewBox="0 0 24 24" fill="none" xmlns="http://www.w3.org/2000/svg">
  <path d="M8.72878 17.9023H15.2962C15.5446 17.9023 15.7515 17.8184 15.917 17.6508C16.0825 17.4831 16.1652 17.2754 16.1652 17.0276C16.1652 16.7815 16.0825 16.575 15.917 16.4083C15.7515 16.2416 15.5446 16.1582 15.2962 16.1582H8.7228C8.45784 16.1582 8.24676 16.2419 8.08956 16.4092C7.93237 16.5766 7.85378 16.7839 7.85378 17.0312C7.85378 17.2786 7.93295 17.4856 8.09128 17.6523C8.24961 17.8189 8.46211 17.9023 8.72878 17.9023ZM8.72878 13.5631H15.3022C15.5484 13.5631 15.7548 13.4793 15.9213 13.3117C16.0879 13.144 16.1712 12.9363 16.1712 12.6885C16.1712 12.4423 16.0879 12.2369 15.9213 12.0722C15.7548 11.9074 15.5484 11.8251 15.3022 11.8251H8.7228C8.45784 11.8251 8.24676 11.908 8.08956 12.0738C7.93237 12.2395 7.85378 12.4455 7.85378 12.6917C7.85378 12.9379 7.93295 13.1446 8.09128 13.312C8.24961 13.4794 8.46211 13.5631 8.72878 13.5631ZM5.51573 22.43C5.0089 22.43 4.56009 22.236 4.1693 21.848C3.77852 21.46 3.58313 21.0098 3.58313 20.4974V3.50281C3.58313 2.98873 3.77852 2.53711 4.1693 2.14796C4.56009 1.75879 5.0089 1.56421 5.51573 1.56421H13.6848C13.9506 1.56421 14.204 1.61756 14.4449 1.72426C14.6859 1.83098 14.8917 1.97292 15.0625 2.15008L19.831 6.89356C20.007 7.08374 20.1497 7.29598 20.2589 7.53028C20.3682 7.76457 20.4228 8.02189 20.4228 8.30226V20.4974C20.4228 21.0098 20.2268 21.46 19.8349 21.848C19.4429 22.236 18.9927 22.43 18.4842 22.43H5.51573ZM13.5109 7.41638V3.50281H5.51573V20.4974H18.4842V8.39518H14.4897C14.2072 8.39518 13.9735 8.30266 13.7884 8.11761C13.6034 7.93256 13.5109 7.69882 13.5109 7.41638Z" fill="#E0E7FF"/>
</svg>
